<svg width="231" height="100" viewBox="0 0 231 100" fill="none" xmlns="http://www.w3.org/2000/svg">
<rect x="0.5" y="0.5" width="230" height="99" fill="#DEDEDE"/>
<rect x="0.5" y="0.5" width="230" height="99" stroke="#ADADAD"/>
<circle cx="58" cy="50" r="18" fill="#767676"/>
<path d="M95.844 42.986L91.317 50.528V56H88.689V50.519L84.171 42.986H87.015L90.012 48.26L92.973 42.986H95.844ZM99.4218 56.18C98.5098 56.18 97.7148 55.985 97.0368 55.595C96.3648 55.205 95.8428 54.653 95.4708 53.939C95.1048 53.225 94.9218 52.379 94.9218 51.401C94.9218 50.423 95.1048 49.568 95.4708 48.836C95.8428 48.104 96.3648 47.534 97.0368 47.126C97.7148 46.718 98.5128 46.514 99.4308 46.514C100.349 46.514 101.144 46.715 101.816 47.117C102.488 47.513 103.007 48.077 103.373 48.809C103.739 49.541 103.922 50.405 103.922 51.401C103.922 52.337 103.742 53.165 103.382 53.885C103.028 54.599 102.515 55.16 101.843 55.568C101.177 55.976 100.37 56.18 99.4218 56.18ZM99.4308 54.227C99.8928 54.227 100.265 54.092 100.547 53.822C100.829 53.552 101.033 53.198 101.159 52.76C101.291 52.316 101.357 51.833 101.357 51.311C101.357 50.819 101.297 50.354 101.177 49.916C101.063 49.478 100.865 49.124 100.583 48.854C100.301 48.584 99.9168 48.449 99.4308 48.449C98.9688 48.449 98.5938 48.578 98.3058 48.836C98.0238 49.088 97.8168 49.433 97.6848 49.871C97.5528 50.303 97.4868 50.783 97.4868 51.311C97.4868 51.797 97.5468 52.265 97.6668 52.715C97.7868 53.159 97.9878 53.522 98.2698 53.804C98.5518 54.086 98.9388 54.227 99.4308 54.227ZM108.997 56.18C108.565 56.18 108.139 56.114 107.719 55.982C107.305 55.85 106.927 55.655 106.585 55.397C106.243 55.139 105.967 54.821 105.757 54.443C105.553 54.065 105.451 53.627 105.451 53.129V46.694H108.079V52.796C108.079 53.228 108.22 53.582 108.502 53.858C108.784 54.134 109.198 54.272 109.744 54.272C110.26 54.272 110.668 54.14 110.968 53.876C111.274 53.606 111.427 53.231 111.427 52.751V46.694H114.028V56H112.048L111.742 54.155C111.634 54.701 111.43 55.121 111.13 55.415C110.836 55.703 110.497 55.901 110.113 56.009C109.735 56.123 109.363 56.18 108.997 56.18ZM116.221 56V46.694H118.75V48.899C118.9 48.425 119.11 48.011 119.38 47.657C119.656 47.297 119.989 47.018 120.379 46.82C120.769 46.616 121.21 46.514 121.702 46.514C121.786 46.514 121.864 46.52 121.936 46.532C122.014 46.538 122.071 46.55 122.107 46.568V49.07C122.053 49.046 121.987 49.031 121.909 49.025C121.837 49.019 121.771 49.013 121.711 49.007C121.195 48.965 120.754 48.98 120.388 49.052C120.022 49.124 119.725 49.247 119.497 49.421C119.269 49.595 119.104 49.808 119.002 50.06C118.9 50.312 118.849 50.594 118.849 50.906V56H116.221ZM126.718 56L131.38 42.986H134.152L138.805 56H136.186L135.124 52.985H130.444L129.355 56H126.718ZM131.029 50.69H134.494L132.775 45.524L131.029 50.69ZM144.508 59.078C142.852 59.078 141.592 58.868 140.728 58.448C139.87 58.028 139.441 57.476 139.441 56.792C139.441 56.474 139.525 56.207 139.693 55.991C139.861 55.775 140.056 55.604 140.278 55.478C140.506 55.346 140.713 55.247 140.899 55.181C141.091 55.109 141.208 55.061 141.25 55.037C141.154 54.983 141.016 54.905 140.836 54.803C140.656 54.695 140.488 54.551 140.332 54.371C140.182 54.185 140.107 53.945 140.107 53.651C140.107 53.321 140.263 53.015 140.575 52.733C140.893 52.451 141.373 52.256 142.015 52.148C141.403 51.86 140.938 51.47 140.62 50.978C140.302 50.486 140.143 49.982 140.143 49.466C140.143 48.854 140.335 48.329 140.719 47.891C141.103 47.453 141.625 47.12 142.285 46.892C142.951 46.664 143.704 46.55 144.544 46.55C145.186 46.55 145.711 46.619 146.119 46.757C146.527 46.889 146.905 47.063 147.253 47.279C147.391 47.225 147.574 47.156 147.802 47.072C148.03 46.982 148.276 46.886 148.54 46.784C148.804 46.676 149.062 46.571 149.314 46.469C149.566 46.361 149.791 46.265 149.989 46.181L149.98 48.215L148.369 48.476C148.435 48.638 148.486 48.812 148.522 48.998C148.558 49.184 148.576 49.337 148.576 49.457C148.576 49.997 148.417 50.501 148.099 50.969C147.787 51.437 147.316 51.815 146.686 52.103C146.062 52.391 145.288 52.535 144.364 52.535C144.25 52.535 144.097 52.532 143.905 52.526C143.719 52.52 143.566 52.511 143.446 52.499C143.092 52.517 142.849 52.562 142.717 52.634C142.585 52.706 142.519 52.79 142.519 52.886C142.519 53.03 142.654 53.126 142.924 53.174C143.194 53.216 143.602 53.255 144.148 53.291C144.34 53.303 144.607 53.318 144.949 53.336C145.291 53.354 145.669 53.378 146.083 53.408C147.223 53.486 148.072 53.768 148.63 54.254C149.194 54.734 149.476 55.34 149.476 56.072C149.476 56.942 149.062 57.659 148.234 58.223C147.412 58.793 146.17 59.078 144.508 59.078ZM144.931 57.611C145.663 57.611 146.185 57.521 146.497 57.341C146.809 57.161 146.965 56.903 146.965 56.567C146.965 56.285 146.845 56.057 146.605 55.883C146.365 55.703 146.014 55.598 145.552 55.568L143.419 55.424C143.143 55.412 142.897 55.454 142.681 55.55C142.471 55.646 142.306 55.778 142.186 55.946C142.072 56.114 142.015 56.294 142.015 56.486C142.015 56.876 142.252 57.161 142.726 57.341C143.2 57.521 143.935 57.611 144.931 57.611ZM144.436 51.068C144.934 51.068 145.333 50.933 145.633 50.663C145.939 50.387 146.092 50.015 146.092 49.547C146.092 49.061 145.939 48.671 145.633 48.377C145.333 48.083 144.934 47.936 144.436 47.936C143.944 47.936 143.542 48.083 143.23 48.377C142.924 48.671 142.771 49.061 142.771 49.547C142.771 50.009 142.918 50.378 143.212 50.654C143.512 50.93 143.92 51.068 144.436 51.068ZM153.431 51.95C153.425 52.424 153.5 52.838 153.656 53.192C153.812 53.54 154.037 53.81 154.331 54.002C154.631 54.188 154.991 54.281 155.411 54.281C155.861 54.281 156.254 54.185 156.59 53.993C156.932 53.801 157.169 53.486 157.301 53.048H159.668C159.566 53.708 159.302 54.272 158.876 54.74C158.456 55.208 157.946 55.565 157.346 55.811C156.746 56.057 156.122 56.18 155.474 56.18C154.556 56.18 153.746 55.988 153.044 55.604C152.348 55.214 151.805 54.665 151.415 53.957C151.025 53.249 150.83 52.415 150.83 51.455C150.83 50.525 151.007 49.688 151.361 48.944C151.715 48.194 152.228 47.603 152.9 47.171C153.578 46.733 154.391 46.514 155.339 46.514C156.287 46.514 157.082 46.715 157.724 47.117C158.372 47.513 158.858 48.068 159.182 48.782C159.512 49.49 159.677 50.309 159.677 51.239V51.95H153.431ZM153.422 50.384H157.22C157.22 50.012 157.151 49.67 157.013 49.358C156.875 49.046 156.665 48.8 156.383 48.62C156.107 48.44 155.759 48.35 155.339 48.35C154.931 48.35 154.583 48.449 154.295 48.647C154.013 48.839 153.797 49.091 153.647 49.403C153.497 49.715 153.422 50.042 153.422 50.384ZM161.502 56V46.694H164.085V48.008C164.229 47.78 164.415 47.561 164.643 47.351C164.877 47.135 165.171 46.958 165.525 46.82C165.879 46.682 166.299 46.613 166.785 46.613C167.355 46.613 167.886 46.724 168.378 46.946C168.876 47.168 169.278 47.519 169.584 47.999C169.89 48.473 170.043 49.094 170.043 49.862V56H167.415V50.186C167.415 49.682 167.265 49.304 166.965 49.052C166.665 48.8 166.299 48.674 165.867 48.674C165.579 48.674 165.3 48.725 165.03 48.827C164.766 48.929 164.55 49.082 164.382 49.286C164.214 49.49 164.13 49.742 164.13 50.042V56H161.502ZM176.159 46.514C176.939 46.514 177.611 46.673 178.175 46.991C178.745 47.309 179.192 47.738 179.516 48.278C179.846 48.818 180.035 49.421 180.083 50.087H177.896C177.854 49.841 177.767 49.598 177.635 49.358C177.503 49.112 177.317 48.911 177.077 48.755C176.837 48.593 176.537 48.512 176.177 48.512C175.565 48.512 175.067 48.749 174.683 49.223C174.305 49.691 174.116 50.405 174.116 51.365C174.116 52.271 174.302 52.991 174.674 53.525C175.046 54.053 175.565 54.317 176.231 54.317C176.585 54.317 176.879 54.23 177.113 54.056C177.353 53.882 177.539 53.675 177.671 53.435C177.803 53.189 177.887 52.961 177.923 52.751H180.056C180.014 53.393 179.828 53.975 179.498 54.497C179.168 55.013 178.718 55.424 178.148 55.73C177.584 56.03 176.921 56.18 176.159 56.18C175.295 56.18 174.524 55.988 173.846 55.604C173.168 55.22 172.634 54.671 172.244 53.957C171.86 53.237 171.668 52.379 171.668 51.383C171.668 50.423 171.854 49.577 172.226 48.845C172.598 48.113 173.12 47.543 173.792 47.135C174.47 46.721 175.259 46.514 176.159 46.514ZM183.025 58.97C182.389 58.97 181.939 58.916 181.675 58.808C181.417 58.706 181.288 58.655 181.288 58.655V56.981L182.206 57.017C182.608 57.041 182.932 57.02 183.178 56.954C183.424 56.894 183.61 56.813 183.736 56.711C183.868 56.609 183.961 56.501 184.015 56.387C184.069 56.279 184.108 56.192 184.132 56.126L184.303 55.613L180.685 46.694H183.286L185.518 52.76L187.777 46.694H190.342L186.571 56.054C186.247 56.846 185.905 57.452 185.545 57.872C185.185 58.292 184.795 58.58 184.375 58.736C183.961 58.892 183.511 58.97 183.025 58.97Z" fill="#767676"/>
</svg>
