<svg width="530" height="100" viewBox="0 0 530 100" fill="none" xmlns="http://www.w3.org/2000/svg">
<g clip-path="url(#clip0_125_10083)">
<circle cx="37" cy="35" r="18" fill="#454545"/>
<path d="M74.844 27.986L70.317 35.528V41H67.689V35.519L63.171 27.986H66.015L69.012 33.26L71.973 27.986H74.844ZM78.4218 41.18C77.5098 41.18 76.7148 40.985 76.0368 40.595C75.3648 40.205 74.8428 39.653 74.4708 38.939C74.1048 38.225 73.9218 37.379 73.9218 36.401C73.9218 35.423 74.1048 34.568 74.4708 33.836C74.8428 33.104 75.3648 32.534 76.0368 32.126C76.7148 31.718 77.5128 31.514 78.4308 31.514C79.3488 31.514 80.1438 31.715 80.8158 32.117C81.4878 32.513 82.0068 33.077 82.3728 33.809C82.7388 34.541 82.9218 35.405 82.9218 36.401C82.9218 37.337 82.7418 38.165 82.3818 38.885C82.0278 39.599 81.5148 40.16 80.8428 40.568C80.1768 40.976 79.3698 41.18 78.4218 41.18ZM78.4308 39.227C78.8928 39.227 79.2648 39.092 79.5468 38.822C79.8288 38.552 80.0328 38.198 80.1588 37.76C80.2908 37.316 80.3568 36.833 80.3568 36.311C80.3568 35.819 80.2968 35.354 80.1768 34.916C80.0628 34.478 79.8648 34.124 79.5828 33.854C79.3008 33.584 78.9168 33.449 78.4308 33.449C77.9688 33.449 77.5938 33.578 77.3058 33.836C77.0238 34.088 76.8168 34.433 76.6848 34.871C76.5528 35.303 76.4868 35.783 76.4868 36.311C76.4868 36.797 76.5468 37.265 76.6668 37.715C76.7868 38.159 76.9878 38.522 77.2698 38.804C77.5518 39.086 77.9388 39.227 78.4308 39.227ZM87.9974 41.18C87.5654 41.18 87.1394 41.114 86.7194 40.982C86.3054 40.85 85.9274 40.655 85.5854 40.397C85.2434 40.139 84.9674 39.821 84.7574 39.443C84.5534 39.065 84.4514 38.627 84.4514 38.129V31.694H87.0794V37.796C87.0794 38.228 87.2204 38.582 87.5024 38.858C87.7844 39.134 88.1984 39.272 88.7444 39.272C89.2604 39.272 89.6684 39.14 89.9684 38.876C90.2744 38.606 90.4274 38.231 90.4274 37.751V31.694H93.0284V41H91.0484L90.7424 39.155C90.6344 39.701 90.4304 40.121 90.1304 40.415C89.8364 40.703 89.4974 40.901 89.1134 41.009C88.7354 41.123 88.3634 41.18 87.9974 41.18ZM95.2207 41V31.694H97.7497V33.899C97.8997 33.425 98.1097 33.011 98.3797 32.657C98.6557 32.297 98.9887 32.018 99.3787 31.82C99.7687 31.616 100.21 31.514 100.702 31.514C100.786 31.514 100.864 31.52 100.936 31.532C101.014 31.538 101.071 31.55 101.107 31.568V34.07C101.053 34.046 100.987 34.031 100.909 34.025C100.837 34.019 100.771 34.013 100.711 34.007C100.195 33.965 99.7537 33.98 99.3877 34.052C99.0217 34.124 98.7247 34.247 98.4967 34.421C98.2687 34.595 98.1037 34.808 98.0017 35.06C97.8997 35.312 97.8487 35.594 97.8487 35.906V41H95.2207ZM105.718 41L110.38 27.986H113.152L117.805 41H115.186L114.124 37.985H109.444L108.355 41H105.718ZM110.029 35.69H113.494L111.775 30.524L110.029 35.69ZM123.508 44.078C121.852 44.078 120.592 43.868 119.728 43.448C118.87 43.028 118.441 42.476 118.441 41.792C118.441 41.474 118.525 41.207 118.693 40.991C118.861 40.775 119.056 40.604 119.278 40.478C119.506 40.346 119.713 40.247 119.899 40.181C120.091 40.109 120.208 40.061 120.25 40.037C120.154 39.983 120.016 39.905 119.836 39.803C119.656 39.695 119.488 39.551 119.332 39.371C119.182 39.185 119.107 38.945 119.107 38.651C119.107 38.321 119.263 38.015 119.575 37.733C119.893 37.451 120.373 37.256 121.015 37.148C120.403 36.86 119.938 36.47 119.62 35.978C119.302 35.486 119.143 34.982 119.143 34.466C119.143 33.854 119.335 33.329 119.719 32.891C120.103 32.453 120.625 32.12 121.285 31.892C121.951 31.664 122.704 31.55 123.544 31.55C124.186 31.55 124.711 31.619 125.119 31.757C125.527 31.889 125.905 32.063 126.253 32.279C126.391 32.225 126.574 32.156 126.802 32.072C127.03 31.982 127.276 31.886 127.54 31.784C127.804 31.676 128.062 31.571 128.314 31.469C128.566 31.361 128.791 31.265 128.989 31.181L128.98 33.215L127.369 33.476C127.435 33.638 127.486 33.812 127.522 33.998C127.558 34.184 127.576 34.337 127.576 34.457C127.576 34.997 127.417 35.501 127.099 35.969C126.787 36.437 126.316 36.815 125.686 37.103C125.062 37.391 124.288 37.535 123.364 37.535C123.25 37.535 123.097 37.532 122.905 37.526C122.719 37.52 122.566 37.511 122.446 37.499C122.092 37.517 121.849 37.562 121.717 37.634C121.585 37.706 121.519 37.79 121.519 37.886C121.519 38.03 121.654 38.126 121.924 38.174C122.194 38.216 122.602 38.255 123.148 38.291C123.34 38.303 123.607 38.318 123.949 38.336C124.291 38.354 124.669 38.378 125.083 38.408C126.223 38.486 127.072 38.768 127.63 39.254C128.194 39.734 128.476 40.34 128.476 41.072C128.476 41.942 128.062 42.659 127.234 43.223C126.412 43.793 125.17 44.078 123.508 44.078ZM123.931 42.611C124.663 42.611 125.185 42.521 125.497 42.341C125.809 42.161 125.965 41.903 125.965 41.567C125.965 41.285 125.845 41.057 125.605 40.883C125.365 40.703 125.014 40.598 124.552 40.568L122.419 40.424C122.143 40.412 121.897 40.454 121.681 40.55C121.471 40.646 121.306 40.778 121.186 40.946C121.072 41.114 121.015 41.294 121.015 41.486C121.015 41.876 121.252 42.161 121.726 42.341C122.2 42.521 122.935 42.611 123.931 42.611ZM123.436 36.068C123.934 36.068 124.333 35.933 124.633 35.663C124.939 35.387 125.092 35.015 125.092 34.547C125.092 34.061 124.939 33.671 124.633 33.377C124.333 33.083 123.934 32.936 123.436 32.936C122.944 32.936 122.542 33.083 122.23 33.377C121.924 33.671 121.771 34.061 121.771 34.547C121.771 35.009 121.918 35.378 122.212 35.654C122.512 35.93 122.92 36.068 123.436 36.068ZM132.431 36.95C132.425 37.424 132.5 37.838 132.656 38.192C132.812 38.54 133.037 38.81 133.331 39.002C133.631 39.188 133.991 39.281 134.411 39.281C134.861 39.281 135.254 39.185 135.59 38.993C135.932 38.801 136.169 38.486 136.301 38.048H138.668C138.566 38.708 138.302 39.272 137.876 39.74C137.456 40.208 136.946 40.565 136.346 40.811C135.746 41.057 135.122 41.18 134.474 41.18C133.556 41.18 132.746 40.988 132.044 40.604C131.348 40.214 130.805 39.665 130.415 38.957C130.025 38.249 129.83 37.415 129.83 36.455C129.83 35.525 130.007 34.688 130.361 33.944C130.715 33.194 131.228 32.603 131.9 32.171C132.578 31.733 133.391 31.514 134.339 31.514C135.287 31.514 136.082 31.715 136.724 32.117C137.372 32.513 137.858 33.068 138.182 33.782C138.512 34.49 138.677 35.309 138.677 36.239V36.95H132.431ZM132.422 35.384H136.22C136.22 35.012 136.151 34.67 136.013 34.358C135.875 34.046 135.665 33.8 135.383 33.62C135.107 33.44 134.759 33.35 134.339 33.35C133.931 33.35 133.583 33.449 133.295 33.647C133.013 33.839 132.797 34.091 132.647 34.403C132.497 34.715 132.422 35.042 132.422 35.384ZM140.502 41V31.694H143.085V33.008C143.229 32.78 143.415 32.561 143.643 32.351C143.877 32.135 144.171 31.958 144.525 31.82C144.879 31.682 145.299 31.613 145.785 31.613C146.355 31.613 146.886 31.724 147.378 31.946C147.876 32.168 148.278 32.519 148.584 32.999C148.89 33.473 149.043 34.094 149.043 34.862V41H146.415V35.186C146.415 34.682 146.265 34.304 145.965 34.052C145.665 33.8 145.299 33.674 144.867 33.674C144.579 33.674 144.3 33.725 144.03 33.827C143.766 33.929 143.55 34.082 143.382 34.286C143.214 34.49 143.13 34.742 143.13 35.042V41H140.502ZM155.159 31.514C155.939 31.514 156.611 31.673 157.175 31.991C157.745 32.309 158.192 32.738 158.516 33.278C158.846 33.818 159.035 34.421 159.083 35.087H156.896C156.854 34.841 156.767 34.598 156.635 34.358C156.503 34.112 156.317 33.911 156.077 33.755C155.837 33.593 155.537 33.512 155.177 33.512C154.565 33.512 154.067 33.749 153.683 34.223C153.305 34.691 153.116 35.405 153.116 36.365C153.116 37.271 153.302 37.991 153.674 38.525C154.046 39.053 154.565 39.317 155.231 39.317C155.585 39.317 155.879 39.23 156.113 39.056C156.353 38.882 156.539 38.675 156.671 38.435C156.803 38.189 156.887 37.961 156.923 37.751H159.056C159.014 38.393 158.828 38.975 158.498 39.497C158.168 40.013 157.718 40.424 157.148 40.73C156.584 41.03 155.921 41.18 155.159 41.18C154.295 41.18 153.524 40.988 152.846 40.604C152.168 40.22 151.634 39.671 151.244 38.957C150.86 38.237 150.668 37.379 150.668 36.383C150.668 35.423 150.854 34.577 151.226 33.845C151.598 33.113 152.12 32.543 152.792 32.135C153.47 31.721 154.259 31.514 155.159 31.514ZM162.025 43.97C161.389 43.97 160.939 43.916 160.675 43.808C160.417 43.706 160.288 43.655 160.288 43.655V41.981L161.206 42.017C161.608 42.041 161.932 42.02 162.178 41.954C162.424 41.894 162.61 41.813 162.736 41.711C162.868 41.609 162.961 41.501 163.015 41.387C163.069 41.279 163.108 41.192 163.132 41.126L163.303 40.613L159.685 31.694H162.286L164.518 37.76L166.777 31.694H169.342L165.571 41.054C165.247 41.846 164.905 42.452 164.545 42.872C164.185 43.292 163.795 43.58 163.375 43.736C162.961 43.892 162.511 43.97 162.025 43.97Z" fill="#454545"/>
<rect y="73" width="530" height="134" fill="#F0F0F0"/>
<rect x="255.5" y="16.5" width="258.412" height="39" rx="3.5" fill="white"/>
<rect x="255.5" y="16.5" width="258.412" height="39" rx="3.5" stroke="#ADADAD"/>
<path d="M281.07 42.16C280.499 42.16 279.939 42.088 279.39 41.944C278.84 41.8 278.339 41.584 277.886 41.296C277.432 41.008 277.056 40.648 276.758 40.216C276.464 39.784 276.288 39.2773 276.23 38.696H278.622C278.702 39.048 278.854 39.344 279.078 39.584C279.302 39.824 279.584 40.008 279.926 40.136C280.267 40.264 280.646 40.328 281.062 40.328C281.488 40.328 281.878 40.2747 282.23 40.168C282.582 40.0613 282.864 39.9013 283.078 39.688C283.291 39.4693 283.398 39.1973 283.398 38.872C283.398 38.5787 283.31 38.3387 283.134 38.152C282.963 37.9653 282.731 37.8133 282.438 37.696C282.144 37.5787 281.811 37.4827 281.438 37.408L279.438 37C278.563 36.8347 277.87 36.488 277.358 35.96C276.846 35.4267 276.582 34.7173 276.566 33.832C276.56 33.1067 276.752 32.48 277.142 31.952C277.536 31.4187 278.07 31.008 278.742 30.72C279.419 30.432 280.176 30.288 281.014 30.288C282.011 30.288 282.848 30.4453 283.526 30.76C284.208 31.0693 284.726 31.4907 285.078 32.024C285.435 32.552 285.619 33.1413 285.63 33.792H283.286C283.243 33.3867 283.12 33.064 282.918 32.824C282.715 32.584 282.454 32.4107 282.134 32.304C281.819 32.1973 281.459 32.144 281.054 32.144C280.744 32.144 280.462 32.1787 280.206 32.248C279.955 32.3173 279.742 32.416 279.566 32.544C279.39 32.6667 279.254 32.8133 279.158 32.984C279.062 33.1547 279.014 33.3467 279.014 33.56C279.014 33.896 279.126 34.168 279.35 34.376C279.574 34.584 279.992 34.7547 280.606 34.888L282.59 35.296C283.299 35.4347 283.862 35.64 284.278 35.912C284.699 36.184 285.014 36.4907 285.222 36.832C285.435 37.1733 285.574 37.5227 285.638 37.88C285.707 38.232 285.742 38.5573 285.742 38.856C285.742 39.48 285.544 40.0427 285.15 40.544C284.76 41.04 284.216 41.4347 283.518 41.728C282.819 42.016 282.003 42.16 281.07 42.16ZM289.875 33.728V42H287.643V33.728H289.875ZM289.899 30.44V32.544H287.627V30.44H289.899ZM295.762 44.736C294.29 44.736 293.17 44.5493 292.402 44.176C291.639 43.8027 291.258 43.312 291.258 42.704C291.258 42.4213 291.332 42.184 291.482 41.992C291.631 41.8 291.804 41.648 292.002 41.536C292.204 41.4187 292.388 41.3307 292.554 41.272C292.724 41.208 292.828 41.1653 292.866 41.144C292.78 41.096 292.658 41.0267 292.498 40.936C292.338 40.84 292.188 40.712 292.05 40.552C291.916 40.3867 291.85 40.1733 291.85 39.912C291.85 39.6187 291.988 39.3467 292.266 39.096C292.548 38.8453 292.975 38.672 293.546 38.576C293.002 38.32 292.588 37.9733 292.306 37.536C292.023 37.0987 291.882 36.6507 291.882 36.192C291.882 35.648 292.052 35.1813 292.394 34.792C292.735 34.4027 293.199 34.1067 293.786 33.904C294.378 33.7013 295.047 33.6 295.794 33.6C296.364 33.6 296.831 33.6613 297.194 33.784C297.556 33.9013 297.892 34.056 298.202 34.248C298.324 34.2 298.487 34.1387 298.69 34.064C298.892 33.984 299.111 33.8987 299.346 33.808C299.58 33.712 299.81 33.6187 300.034 33.528C300.258 33.432 300.458 33.3467 300.634 33.272L300.626 35.08L299.194 35.312C299.252 35.456 299.298 35.6107 299.33 35.776C299.362 35.9413 299.378 36.0773 299.378 36.184C299.378 36.664 299.236 37.112 298.954 37.528C298.676 37.944 298.258 38.28 297.698 38.536C297.143 38.792 296.455 38.92 295.634 38.92C295.532 38.92 295.396 38.9173 295.226 38.912C295.06 38.9067 294.924 38.8987 294.818 38.888C294.503 38.904 294.287 38.944 294.17 39.008C294.052 39.072 293.994 39.1467 293.994 39.232C293.994 39.36 294.114 39.4453 294.354 39.488C294.594 39.5253 294.956 39.56 295.442 39.592C295.612 39.6027 295.85 39.616 296.154 39.632C296.458 39.648 296.794 39.6693 297.162 39.696C298.175 39.7653 298.93 40.016 299.426 40.448C299.927 40.8747 300.178 41.4133 300.178 42.064C300.178 42.8373 299.81 43.4747 299.074 43.976C298.343 44.4827 297.239 44.736 295.762 44.736ZM296.138 43.432C296.788 43.432 297.252 43.352 297.53 43.192C297.807 43.032 297.946 42.8027 297.946 42.504C297.946 42.2533 297.839 42.0507 297.626 41.896C297.412 41.736 297.1 41.6427 296.69 41.616L294.794 41.488C294.548 41.4773 294.33 41.5147 294.138 41.6C293.951 41.6853 293.804 41.8027 293.698 41.952C293.596 42.1013 293.546 42.2613 293.546 42.432C293.546 42.7787 293.756 43.032 294.178 43.192C294.599 43.352 295.252 43.432 296.138 43.432ZM295.698 37.616C296.14 37.616 296.495 37.496 296.762 37.256C297.034 37.0107 297.17 36.68 297.17 36.264C297.17 35.832 297.034 35.4853 296.762 35.224C296.495 34.9627 296.14 34.832 295.698 34.832C295.26 34.832 294.903 34.9627 294.626 35.224C294.354 35.4853 294.218 35.832 294.218 36.264C294.218 36.6747 294.348 37.0027 294.61 37.248C294.876 37.4933 295.239 37.616 295.698 37.616ZM301.977 42V33.728H304.273V34.896C304.401 34.6933 304.566 34.4987 304.769 34.312C304.977 34.12 305.238 33.9627 305.553 33.84C305.867 33.7173 306.241 33.656 306.673 33.656C307.179 33.656 307.651 33.7547 308.089 33.952C308.531 34.1493 308.889 34.4613 309.161 34.888C309.433 35.3093 309.569 35.8613 309.569 36.544V42H307.233V36.832C307.233 36.384 307.099 36.048 306.833 35.824C306.566 35.6 306.241 35.488 305.857 35.488C305.601 35.488 305.353 35.5333 305.113 35.624C304.878 35.7147 304.686 35.8507 304.537 36.032C304.387 36.2133 304.313 36.4373 304.313 36.704V42H301.977ZM317.204 33.728V42H314.972V33.728H317.204ZM317.228 30.44V32.544H314.956V30.44H317.228ZM319.367 42V33.728H321.663V34.896C321.791 34.6933 321.957 34.4987 322.159 34.312C322.367 34.12 322.629 33.9627 322.943 33.84C323.258 33.7173 323.631 33.656 324.063 33.656C324.57 33.656 325.042 33.7547 325.479 33.952C325.922 34.1493 326.279 34.4613 326.551 34.888C326.823 35.3093 326.959 35.8613 326.959 36.544V42H324.623V36.832C324.623 36.384 324.49 36.048 324.223 35.824C323.957 35.6 323.631 35.488 323.247 35.488C322.991 35.488 322.743 35.5333 322.503 35.624C322.269 35.7147 322.077 35.8507 321.927 36.032C321.778 36.2133 321.703 36.4373 321.703 36.704V42H319.367ZM343.603 33.728L340.883 42H339.027L337.483 36.992L335.947 42H334.139L331.459 33.728H333.523L335.107 38.856H335.171L336.691 33.728H338.355L339.891 38.856H339.955L341.491 33.728H343.603ZM347.204 33.728V42H344.972V33.728H347.204ZM347.228 30.44V32.544H344.956V30.44H347.228ZM354.36 35.352H352.52L352.536 39.76C352.536 39.9627 352.56 40.1147 352.608 40.216C352.662 40.312 352.742 40.376 352.848 40.408C352.96 40.4347 353.102 40.448 353.272 40.448H354.384V41.888C354.278 41.936 354.11 41.9813 353.88 42.024C353.656 42.0667 353.342 42.088 352.936 42.088C352.211 42.088 351.648 41.9947 351.248 41.808C350.854 41.6213 350.579 41.36 350.424 41.024C350.27 40.688 350.192 40.2987 350.192 39.856V35.352H348.848V33.728H350.272L350.856 31.232H352.52V33.72H354.36V35.352ZM356.086 42V30.112H358.406V34.92C358.539 34.728 358.707 34.5387 358.91 34.352C359.113 34.16 359.366 34 359.67 33.872C359.974 33.744 360.345 33.68 360.782 33.68C361.31 33.68 361.79 33.784 362.222 33.992C362.659 34.1947 363.009 34.4907 363.27 34.88C363.537 35.2693 363.67 35.744 363.67 36.304V42H361.326V36.648C361.326 36.2747 361.19 35.9893 360.918 35.792C360.651 35.5893 360.326 35.488 359.942 35.488C359.691 35.488 359.449 35.5333 359.214 35.624C358.979 35.7147 358.787 35.8533 358.638 36.04C358.494 36.2213 358.422 36.448 358.422 36.72V42H356.086Z" fill="#112E51"/>
<path d="M491.738 30.3662L488.59 38.8424L485.458 30.3662H482.671L487.182 41.6005H489.855L494.412 30.3662H491.738Z" fill="#112E51"/>
<path fill-rule="evenodd" clip-rule="evenodd" d="M469.141 36.0004C469.141 32.709 471.803 30.2861 475.305 30.2861C478.815 30.2861 481.473 32.7738 481.473 36.0004C481.473 39.2271 478.811 41.7147 475.305 41.7147C471.799 41.7147 469.141 39.2918 469.141 36.0004ZM471.803 35.9852C471.792 37.9116 473.376 39.4829 475.344 39.4976C476.28 39.4896 477.173 39.1154 477.825 38.4584C478.477 37.8014 478.834 36.9163 478.815 36.0004C478.835 35.0839 478.479 34.1978 477.827 33.54C477.174 32.8821 476.28 32.5074 475.344 32.4995C474.4 32.4964 473.495 32.8632 472.83 33.5182C472.164 34.1731 471.794 35.0615 471.803 35.9852Z" fill="#112E51"/>
<path d="M461.759 32.4842C462.929 32.5127 464.049 32.9584 464.907 33.7376L466.366 31.9242C465.073 30.8688 463.443 30.2893 461.759 30.2861C458.183 30.2861 455.498 32.7433 455.498 36.0004C455.498 39.2576 458.14 41.7147 461.615 41.7147C463.285 41.6874 464.909 41.1786 466.285 40.2518V35.4214H462.016V37.4061H464.02V38.888C463.328 39.2547 462.56 39.463 461.775 39.4976C460.467 39.5398 459.239 38.8808 458.572 37.7784C457.906 36.6761 457.906 35.3057 458.572 34.2033C459.239 33.101 460.467 32.442 461.775 32.4842H461.759Z" fill="#112E51"/>
<path d="M452.03 38.7663C451.633 38.7563 451.25 38.9088 450.973 39.1873C450.696 39.4658 450.55 39.8448 450.571 40.233C450.543 40.7603 450.815 41.2596 451.277 41.5315C451.74 41.8033 452.317 41.8033 452.78 41.5315C453.242 41.2596 453.514 40.7603 453.486 40.233C453.51 39.8446 453.366 39.4641 453.089 39.1849C452.812 38.9058 452.428 38.7538 452.03 38.7663Z" fill="#112E51"/>
<path d="M444.687 37.5891L439.111 30.3662H436.749V41.6005H439.224V34.3967L444.785 41.6005H447.143V30.3662H444.687V37.5891Z" fill="#112E51"/>
<rect x="430.176" y="30.3662" width="2.59167" height="11.2343" fill="#112E51"/>
<path d="M421.93 32.4842C423.101 32.5127 424.22 32.9584 425.079 33.7376L426.538 31.9242C425.244 30.8688 423.614 30.2893 421.93 30.2861C418.354 30.2861 415.665 32.7433 415.665 36.0004C415.665 39.2576 418.308 41.7147 421.783 41.7147C423.452 41.6874 425.077 41.1786 426.452 40.2518V35.4214H422.187V37.4061H424.191V38.888C423.5 39.2547 422.732 39.463 421.946 39.4976C420.638 39.5398 419.411 38.8808 418.744 37.7784C418.077 36.6761 418.077 35.3057 418.744 34.2033C419.411 33.101 420.638 32.442 421.946 32.4842H421.93Z" fill="#112E51"/>
<path fill-rule="evenodd" clip-rule="evenodd" d="M400.874 36.0004C400.874 32.709 403.536 30.2861 407.038 30.2861C410.548 30.2861 413.202 32.7738 413.202 36.0004C413.202 39.2271 410.548 41.7147 407.038 41.7147C403.528 41.7147 400.874 39.2918 400.874 36.0004ZM403.528 36.0004C403.526 37.9209 405.108 39.4829 407.069 39.4976C408.006 39.4916 408.902 39.1183 409.556 38.4611C410.209 37.8039 410.567 36.9176 410.548 36.0004C410.564 35.0852 410.205 34.2019 409.551 33.5471C408.898 32.8924 408.004 32.5207 407.069 32.5147C406.126 32.5116 405.22 32.8785 404.555 33.5334C403.89 34.1883 403.52 35.0768 403.528 36.0004Z" fill="#112E51"/>
<path d="M394.111 30.3662H391.519V41.6005H399.03V39.3872H394.111V30.3662Z" fill="#112E51"/>
<path d="M384.063 28H379.429V44C383.826 42.0952 385.363 39.6267 385.752 38.8571C385.825 38.71 385.863 38.5483 385.861 38.3848V29.76C385.861 29.2932 385.672 28.8456 385.335 28.5155C384.997 28.1854 384.54 28 384.063 28Z" fill="#B51E23"/>
<path d="M374.798 28C373.805 28 373 28.788 373 29.76V38.3848C372.998 38.5483 373.036 38.71 373.109 38.8571C373.498 39.619 375.055 42.1067 379.429 44V28H374.798Z" fill="#E21D3E"/>
<path d="M380.569 34.8949C381.18 34.4241 381.419 33.6257 381.165 32.9062C380.91 32.1867 380.218 31.7041 379.44 31.7041C378.662 31.7041 377.97 32.1867 377.716 32.9062C377.461 33.6257 377.7 34.4241 378.312 34.8949C378.109 36.0149 377.91 37.1349 377.713 38.2549C378.279 38.3505 378.853 38.399 379.429 38.3997C380.012 38.4111 380.595 38.3729 381.172 38.2854C380.97 37.1426 380.783 36.0226 380.569 34.8949Z" fill="white"/>
</g>
<rect x="0.5" y="0.5" width="529" height="99" stroke="#ADADAD"/>
<defs>
<clipPath id="clip0_125_10083">
<rect width="530" height="100" fill="white"/>
</clipPath>
</defs>
</svg>
