<svg width="530" height="100" viewBox="0 0 530 100" fill="none" xmlns="http://www.w3.org/2000/svg">
<g clip-path="url(#clip0_125_10090)">
<circle cx="37" cy="35" r="18" fill="#454545"/>
<path d="M74.844 27.986L70.317 35.528V41H67.689V35.519L63.171 27.986H66.015L69.012 33.26L71.973 27.986H74.844ZM78.4218 41.18C77.5098 41.18 76.7148 40.985 76.0368 40.595C75.3648 40.205 74.8428 39.653 74.4708 38.939C74.1048 38.225 73.9218 37.379 73.9218 36.401C73.9218 35.423 74.1048 34.568 74.4708 33.836C74.8428 33.104 75.3648 32.534 76.0368 32.126C76.7148 31.718 77.5128 31.514 78.4308 31.514C79.3488 31.514 80.1438 31.715 80.8158 32.117C81.4878 32.513 82.0068 33.077 82.3728 33.809C82.7388 34.541 82.9218 35.405 82.9218 36.401C82.9218 37.337 82.7418 38.165 82.3818 38.885C82.0278 39.599 81.5148 40.16 80.8428 40.568C80.1768 40.976 79.3698 41.18 78.4218 41.18ZM78.4308 39.227C78.8928 39.227 79.2648 39.092 79.5468 38.822C79.8288 38.552 80.0328 38.198 80.1588 37.76C80.2908 37.316 80.3568 36.833 80.3568 36.311C80.3568 35.819 80.2968 35.354 80.1768 34.916C80.0628 34.478 79.8648 34.124 79.5828 33.854C79.3008 33.584 78.9168 33.449 78.4308 33.449C77.9688 33.449 77.5938 33.578 77.3058 33.836C77.0238 34.088 76.8168 34.433 76.6848 34.871C76.5528 35.303 76.4868 35.783 76.4868 36.311C76.4868 36.797 76.5468 37.265 76.6668 37.715C76.7868 38.159 76.9878 38.522 77.2698 38.804C77.5518 39.086 77.9388 39.227 78.4308 39.227ZM87.9974 41.18C87.5654 41.18 87.1394 41.114 86.7194 40.982C86.3054 40.85 85.9274 40.655 85.5854 40.397C85.2434 40.139 84.9674 39.821 84.7574 39.443C84.5534 39.065 84.4514 38.627 84.4514 38.129V31.694H87.0794V37.796C87.0794 38.228 87.2204 38.582 87.5024 38.858C87.7844 39.134 88.1984 39.272 88.7444 39.272C89.2604 39.272 89.6684 39.14 89.9684 38.876C90.2744 38.606 90.4274 38.231 90.4274 37.751V31.694H93.0284V41H91.0484L90.7424 39.155C90.6344 39.701 90.4304 40.121 90.1304 40.415C89.8364 40.703 89.4974 40.901 89.1134 41.009C88.7354 41.123 88.3634 41.18 87.9974 41.18ZM95.2207 41V31.694H97.7497V33.899C97.8997 33.425 98.1097 33.011 98.3797 32.657C98.6557 32.297 98.9887 32.018 99.3787 31.82C99.7687 31.616 100.21 31.514 100.702 31.514C100.786 31.514 100.864 31.52 100.936 31.532C101.014 31.538 101.071 31.55 101.107 31.568V34.07C101.053 34.046 100.987 34.031 100.909 34.025C100.837 34.019 100.771 34.013 100.711 34.007C100.195 33.965 99.7537 33.98 99.3877 34.052C99.0217 34.124 98.7247 34.247 98.4967 34.421C98.2687 34.595 98.1037 34.808 98.0017 35.06C97.8997 35.312 97.8487 35.594 97.8487 35.906V41H95.2207ZM105.718 41L110.38 27.986H113.152L117.805 41H115.186L114.124 37.985H109.444L108.355 41H105.718ZM110.029 35.69H113.494L111.775 30.524L110.029 35.69ZM123.508 44.078C121.852 44.078 120.592 43.868 119.728 43.448C118.87 43.028 118.441 42.476 118.441 41.792C118.441 41.474 118.525 41.207 118.693 40.991C118.861 40.775 119.056 40.604 119.278 40.478C119.506 40.346 119.713 40.247 119.899 40.181C120.091 40.109 120.208 40.061 120.25 40.037C120.154 39.983 120.016 39.905 119.836 39.803C119.656 39.695 119.488 39.551 119.332 39.371C119.182 39.185 119.107 38.945 119.107 38.651C119.107 38.321 119.263 38.015 119.575 37.733C119.893 37.451 120.373 37.256 121.015 37.148C120.403 36.86 119.938 36.47 119.62 35.978C119.302 35.486 119.143 34.982 119.143 34.466C119.143 33.854 119.335 33.329 119.719 32.891C120.103 32.453 120.625 32.12 121.285 31.892C121.951 31.664 122.704 31.55 123.544 31.55C124.186 31.55 124.711 31.619 125.119 31.757C125.527 31.889 125.905 32.063 126.253 32.279C126.391 32.225 126.574 32.156 126.802 32.072C127.03 31.982 127.276 31.886 127.54 31.784C127.804 31.676 128.062 31.571 128.314 31.469C128.566 31.361 128.791 31.265 128.989 31.181L128.98 33.215L127.369 33.476C127.435 33.638 127.486 33.812 127.522 33.998C127.558 34.184 127.576 34.337 127.576 34.457C127.576 34.997 127.417 35.501 127.099 35.969C126.787 36.437 126.316 36.815 125.686 37.103C125.062 37.391 124.288 37.535 123.364 37.535C123.25 37.535 123.097 37.532 122.905 37.526C122.719 37.52 122.566 37.511 122.446 37.499C122.092 37.517 121.849 37.562 121.717 37.634C121.585 37.706 121.519 37.79 121.519 37.886C121.519 38.03 121.654 38.126 121.924 38.174C122.194 38.216 122.602 38.255 123.148 38.291C123.34 38.303 123.607 38.318 123.949 38.336C124.291 38.354 124.669 38.378 125.083 38.408C126.223 38.486 127.072 38.768 127.63 39.254C128.194 39.734 128.476 40.34 128.476 41.072C128.476 41.942 128.062 42.659 127.234 43.223C126.412 43.793 125.17 44.078 123.508 44.078ZM123.931 42.611C124.663 42.611 125.185 42.521 125.497 42.341C125.809 42.161 125.965 41.903 125.965 41.567C125.965 41.285 125.845 41.057 125.605 40.883C125.365 40.703 125.014 40.598 124.552 40.568L122.419 40.424C122.143 40.412 121.897 40.454 121.681 40.55C121.471 40.646 121.306 40.778 121.186 40.946C121.072 41.114 121.015 41.294 121.015 41.486C121.015 41.876 121.252 42.161 121.726 42.341C122.2 42.521 122.935 42.611 123.931 42.611ZM123.436 36.068C123.934 36.068 124.333 35.933 124.633 35.663C124.939 35.387 125.092 35.015 125.092 34.547C125.092 34.061 124.939 33.671 124.633 33.377C124.333 33.083 123.934 32.936 123.436 32.936C122.944 32.936 122.542 33.083 122.23 33.377C121.924 33.671 121.771 34.061 121.771 34.547C121.771 35.009 121.918 35.378 122.212 35.654C122.512 35.93 122.92 36.068 123.436 36.068ZM132.431 36.95C132.425 37.424 132.5 37.838 132.656 38.192C132.812 38.54 133.037 38.81 133.331 39.002C133.631 39.188 133.991 39.281 134.411 39.281C134.861 39.281 135.254 39.185 135.59 38.993C135.932 38.801 136.169 38.486 136.301 38.048H138.668C138.566 38.708 138.302 39.272 137.876 39.74C137.456 40.208 136.946 40.565 136.346 40.811C135.746 41.057 135.122 41.18 134.474 41.18C133.556 41.18 132.746 40.988 132.044 40.604C131.348 40.214 130.805 39.665 130.415 38.957C130.025 38.249 129.83 37.415 129.83 36.455C129.83 35.525 130.007 34.688 130.361 33.944C130.715 33.194 131.228 32.603 131.9 32.171C132.578 31.733 133.391 31.514 134.339 31.514C135.287 31.514 136.082 31.715 136.724 32.117C137.372 32.513 137.858 33.068 138.182 33.782C138.512 34.49 138.677 35.309 138.677 36.239V36.95H132.431ZM132.422 35.384H136.22C136.22 35.012 136.151 34.67 136.013 34.358C135.875 34.046 135.665 33.8 135.383 33.62C135.107 33.44 134.759 33.35 134.339 33.35C133.931 33.35 133.583 33.449 133.295 33.647C133.013 33.839 132.797 34.091 132.647 34.403C132.497 34.715 132.422 35.042 132.422 35.384ZM140.502 41V31.694H143.085V33.008C143.229 32.78 143.415 32.561 143.643 32.351C143.877 32.135 144.171 31.958 144.525 31.82C144.879 31.682 145.299 31.613 145.785 31.613C146.355 31.613 146.886 31.724 147.378 31.946C147.876 32.168 148.278 32.519 148.584 32.999C148.89 33.473 149.043 34.094 149.043 34.862V41H146.415V35.186C146.415 34.682 146.265 34.304 145.965 34.052C145.665 33.8 145.299 33.674 144.867 33.674C144.579 33.674 144.3 33.725 144.03 33.827C143.766 33.929 143.55 34.082 143.382 34.286C143.214 34.49 143.13 34.742 143.13 35.042V41H140.502ZM155.159 31.514C155.939 31.514 156.611 31.673 157.175 31.991C157.745 32.309 158.192 32.738 158.516 33.278C158.846 33.818 159.035 34.421 159.083 35.087H156.896C156.854 34.841 156.767 34.598 156.635 34.358C156.503 34.112 156.317 33.911 156.077 33.755C155.837 33.593 155.537 33.512 155.177 33.512C154.565 33.512 154.067 33.749 153.683 34.223C153.305 34.691 153.116 35.405 153.116 36.365C153.116 37.271 153.302 37.991 153.674 38.525C154.046 39.053 154.565 39.317 155.231 39.317C155.585 39.317 155.879 39.23 156.113 39.056C156.353 38.882 156.539 38.675 156.671 38.435C156.803 38.189 156.887 37.961 156.923 37.751H159.056C159.014 38.393 158.828 38.975 158.498 39.497C158.168 40.013 157.718 40.424 157.148 40.73C156.584 41.03 155.921 41.18 155.159 41.18C154.295 41.18 153.524 40.988 152.846 40.604C152.168 40.22 151.634 39.671 151.244 38.957C150.86 38.237 150.668 37.379 150.668 36.383C150.668 35.423 150.854 34.577 151.226 33.845C151.598 33.113 152.12 32.543 152.792 32.135C153.47 31.721 154.259 31.514 155.159 31.514ZM162.025 43.97C161.389 43.97 160.939 43.916 160.675 43.808C160.417 43.706 160.288 43.655 160.288 43.655V41.981L161.206 42.017C161.608 42.041 161.932 42.02 162.178 41.954C162.424 41.894 162.61 41.813 162.736 41.711C162.868 41.609 162.961 41.501 163.015 41.387C163.069 41.279 163.108 41.192 163.132 41.126L163.303 40.613L159.685 31.694H162.286L164.518 37.76L166.777 31.694H169.342L165.571 41.054C165.247 41.846 164.905 42.452 164.545 42.872C164.185 43.292 163.795 43.58 163.375 43.736C162.961 43.892 162.511 43.97 162.025 43.97Z" fill="#454545"/>
<path d="M324.528 43V31.432H326.576L330.064 40.984L333.6 31.432H335.64V43H334.112V33.648L330.76 43H329.376L326.048 33.736V43H324.528ZM339.343 39.208C339.343 39.7307 339.428 40.2053 339.599 40.632C339.775 41.0533 340.039 41.3893 340.391 41.64C340.748 41.8907 341.193 42.016 341.727 42.016C342.255 42.016 342.708 41.8933 343.087 41.648C343.471 41.4027 343.716 41.048 343.823 40.584H345.223C345.121 41.144 344.897 41.616 344.551 42C344.204 42.384 343.785 42.6747 343.295 42.872C342.804 43.064 342.292 43.16 341.759 43.16C340.985 43.16 340.305 42.992 339.719 42.656C339.132 42.32 338.673 41.8373 338.343 41.208C338.012 40.5787 337.847 39.824 337.847 38.944C337.847 38.0747 337.996 37.312 338.295 36.656C338.593 36 339.025 35.488 339.591 35.12C340.161 34.752 340.847 34.568 341.647 34.568C342.425 34.568 343.084 34.736 343.623 35.072C344.161 35.408 344.569 35.8827 344.847 36.496C345.129 37.104 345.271 37.8267 345.271 38.664V39.208H339.343ZM339.351 38.208H343.847C343.847 37.7333 343.767 37.3067 343.607 36.928C343.447 36.544 343.201 36.2427 342.871 36.024C342.545 35.8 342.135 35.688 341.639 35.688C341.121 35.688 340.692 35.8133 340.351 36.064C340.015 36.3093 339.761 36.6267 339.591 37.016C339.425 37.4 339.345 37.7973 339.351 38.208ZM347.302 43V34.728H348.734V35.928C348.867 35.6987 349.051 35.4827 349.286 35.28C349.526 35.0773 349.814 34.9147 350.15 34.792C350.491 34.6693 350.883 34.608 351.326 34.608C351.849 34.608 352.329 34.712 352.766 34.92C353.209 35.128 353.561 35.4533 353.822 35.896C354.089 36.3333 354.222 36.8987 354.222 37.592V43H352.742V37.736C352.742 37.0907 352.571 36.6133 352.23 36.304C351.894 35.9893 351.457 35.832 350.918 35.832C350.545 35.832 350.195 35.8933 349.87 36.016C349.545 36.1333 349.281 36.3147 349.078 36.56C348.875 36.8 348.774 37.104 348.774 37.472V43H347.302ZM359.452 43.16C359.02 43.1547 358.612 43.0933 358.228 42.976C357.849 42.8533 357.513 42.6747 357.22 42.44C356.926 42.2053 356.694 41.9147 356.524 41.568C356.358 41.216 356.276 40.808 356.276 40.344V34.728H357.756V40.192C357.756 40.7307 357.921 41.168 358.252 41.504C358.588 41.84 359.092 42.008 359.764 42.008C360.372 42.008 360.86 41.8507 361.228 41.536C361.601 41.216 361.788 40.7413 361.788 40.112V34.728H363.26V43H362.084L361.932 41.416C361.83 41.832 361.657 42.168 361.412 42.424C361.172 42.68 360.881 42.8693 360.54 42.992C360.204 43.1093 359.841 43.1653 359.452 43.16ZM372.34 43.16C371.577 43.16 370.911 42.9973 370.34 42.672C369.769 42.3413 369.327 41.8587 369.012 41.224C368.697 40.5893 368.54 39.8133 368.54 38.896C368.54 38.032 368.687 37.2747 368.98 36.624C369.273 35.9733 369.703 35.4693 370.268 35.112C370.839 34.7493 371.529 34.568 372.34 34.568C373.103 34.568 373.764 34.736 374.324 35.072C374.889 35.4027 375.327 35.8907 375.636 36.536C375.945 37.1813 376.1 37.968 376.1 38.896C376.1 39.7387 375.956 40.48 375.668 41.12C375.385 41.76 374.964 42.2613 374.404 42.624C373.849 42.9813 373.161 43.16 372.34 43.16ZM372.34 41.992C372.836 41.992 373.255 41.8667 373.596 41.616C373.937 41.3653 374.196 41.0053 374.372 40.536C374.548 40.0667 374.636 39.5093 374.636 38.864C374.636 38.272 374.559 37.7413 374.404 37.272C374.249 36.7973 374.001 36.4213 373.66 36.144C373.324 35.8667 372.884 35.728 372.34 35.728C371.839 35.728 371.415 35.8533 371.068 36.104C370.721 36.3493 370.457 36.7067 370.276 37.176C370.1 37.6453 370.012 38.208 370.012 38.864C370.012 39.4453 370.092 39.9733 370.252 40.448C370.412 40.9227 370.663 41.2987 371.004 41.576C371.345 41.8533 371.791 41.992 372.34 41.992ZM378.037 45.576V34.728H379.509L379.525 36.168C379.621 35.9973 379.743 35.8187 379.893 35.632C380.047 35.4453 380.234 35.272 380.453 35.112C380.677 34.952 380.935 34.8213 381.229 34.72C381.527 34.6187 381.866 34.568 382.245 34.568C382.906 34.568 383.487 34.72 383.989 35.024C384.495 35.3227 384.89 35.7813 385.173 36.4C385.455 37.0187 385.597 37.8027 385.597 38.752C385.597 39.7013 385.458 40.504 385.181 41.16C384.909 41.8107 384.514 42.3067 383.997 42.648C383.479 42.9893 382.855 43.16 382.125 43.16C381.757 43.16 381.429 43.1067 381.141 43C380.858 42.8987 380.61 42.7653 380.397 42.6C380.189 42.4293 380.013 42.248 379.869 42.056C379.73 41.864 379.615 41.68 379.525 41.504V45.576H378.037ZM381.845 42.008C382.527 42.008 383.085 41.7493 383.517 41.232C383.949 40.7093 384.165 39.8987 384.165 38.8C384.165 37.856 383.967 37.1067 383.573 36.552C383.178 35.9973 382.602 35.72 381.845 35.72C381.077 35.72 380.495 36.0053 380.101 36.576C379.706 37.1413 379.509 37.8827 379.509 38.8C379.509 39.392 379.597 39.9307 379.773 40.416C379.949 40.9013 380.21 41.288 380.557 41.576C380.903 41.864 381.333 42.008 381.845 42.008ZM391.474 35.808H389.61V40.952C389.61 41.2453 389.639 41.4613 389.698 41.6C389.762 41.7333 389.866 41.8187 390.01 41.856C390.159 41.8933 390.362 41.912 390.618 41.912H391.522V42.904C391.42 42.9413 391.266 42.9733 391.058 43C390.855 43.0267 390.602 43.04 390.298 43.04C389.727 43.04 389.284 42.9627 388.97 42.808C388.655 42.6533 388.434 42.424 388.306 42.12C388.183 41.816 388.122 41.4427 388.122 41V35.808H386.778V34.728H388.162L388.522 32.32H389.61V34.72H391.474V35.808ZM395.199 34.728V43H393.767V34.728H395.199ZM395.231 31.44V32.976H393.719V31.44H395.231ZM401.09 43.16C400.327 43.16 399.661 42.9973 399.09 42.672C398.519 42.3413 398.077 41.8587 397.762 41.224C397.447 40.5893 397.29 39.8133 397.29 38.896C397.29 38.032 397.437 37.2747 397.73 36.624C398.023 35.9733 398.453 35.4693 399.018 35.112C399.589 34.7493 400.279 34.568 401.09 34.568C401.853 34.568 402.514 34.736 403.074 35.072C403.639 35.4027 404.077 35.8907 404.386 36.536C404.695 37.1813 404.85 37.968 404.85 38.896C404.85 39.7387 404.706 40.48 404.418 41.12C404.135 41.76 403.714 42.2613 403.154 42.624C402.599 42.9813 401.911 43.16 401.09 43.16ZM401.09 41.992C401.586 41.992 402.005 41.8667 402.346 41.616C402.687 41.3653 402.946 41.0053 403.122 40.536C403.298 40.0667 403.386 39.5093 403.386 38.864C403.386 38.272 403.309 37.7413 403.154 37.272C402.999 36.7973 402.751 36.4213 402.41 36.144C402.074 35.8667 401.634 35.728 401.09 35.728C400.589 35.728 400.165 35.8533 399.818 36.104C399.471 36.3493 399.207 36.7067 399.026 37.176C398.85 37.6453 398.762 38.208 398.762 38.864C398.762 39.4453 398.842 39.9733 399.002 40.448C399.162 40.9227 399.413 41.2987 399.754 41.576C400.095 41.8533 400.541 41.992 401.09 41.992ZM406.787 43V34.728H408.219V35.928C408.352 35.6987 408.536 35.4827 408.771 35.28C409.011 35.0773 409.299 34.9147 409.635 34.792C409.976 34.6693 410.368 34.608 410.811 34.608C411.333 34.608 411.813 34.712 412.251 34.92C412.693 35.128 413.045 35.4533 413.307 35.896C413.573 36.3333 413.707 36.8987 413.707 37.592V43H412.227V37.736C412.227 37.0907 412.056 36.6133 411.715 36.304C411.379 35.9893 410.941 35.832 410.403 35.832C410.029 35.832 409.68 35.8933 409.355 36.016C409.029 36.1333 408.765 36.3147 408.563 36.56C408.36 36.8 408.259 37.104 408.259 37.472V43H406.787ZM418.832 43.16C418.256 43.16 417.72 43.072 417.224 42.896C416.733 42.7147 416.325 42.4347 416 42.056C415.675 41.672 415.469 41.184 415.384 40.592H416.728C416.803 40.9173 416.936 41.1893 417.128 41.408C417.325 41.6213 417.571 41.784 417.864 41.896C418.157 42.0027 418.477 42.056 418.824 42.056C419.379 42.056 419.827 41.952 420.168 41.744C420.509 41.536 420.68 41.216 420.68 40.784C420.68 40.48 420.589 40.2373 420.408 40.056C420.232 39.8693 419.957 39.7333 419.584 39.648L417.872 39.224C417.205 39.064 416.672 38.8133 416.272 38.472C415.872 38.1307 415.672 37.6533 415.672 37.04C415.667 36.5547 415.781 36.128 416.016 35.76C416.251 35.392 416.603 35.1013 417.072 34.888C417.541 34.6747 418.125 34.568 418.824 34.568C419.72 34.568 420.443 34.7707 420.992 35.176C421.547 35.576 421.835 36.1653 421.856 36.944H420.552C420.499 36.5493 420.32 36.2373 420.016 36.008C419.717 35.7733 419.315 35.656 418.808 35.656C418.28 35.656 417.851 35.7627 417.52 35.976C417.189 36.184 417.024 36.5093 417.024 36.952C417.024 37.2453 417.141 37.4773 417.376 37.648C417.611 37.8133 417.957 37.952 418.416 38.064L420.072 38.48C420.456 38.5813 420.771 38.7147 421.016 38.88C421.267 39.0453 421.464 39.2293 421.608 39.432C421.757 39.6347 421.861 39.848 421.92 40.072C421.984 40.2907 422.016 40.5013 422.016 40.704C422.016 41.2107 421.888 41.648 421.632 42.016C421.381 42.3787 421.019 42.6613 420.544 42.864C420.075 43.0613 419.504 43.16 418.832 43.16Z" fill="#0071BB"/>
<path d="M452.456 43.16C451.912 43.16 451.384 43.0933 450.872 42.96C450.36 42.8213 449.896 42.616 449.48 42.344C449.064 42.072 448.717 41.736 448.44 41.336C448.168 40.9307 447.997 40.4613 447.928 39.928H449.48C449.576 40.3653 449.765 40.7333 450.048 41.032C450.336 41.3307 450.685 41.5547 451.096 41.704C451.512 41.8533 451.963 41.928 452.448 41.928C452.992 41.928 453.477 41.8533 453.904 41.704C454.336 41.5493 454.675 41.3307 454.92 41.048C455.171 40.7653 455.296 40.4267 455.296 40.032C455.296 39.6853 455.216 39.384 455.056 39.128C454.901 38.872 454.675 38.6587 454.376 38.488C454.077 38.3173 453.715 38.184 453.288 38.088L451.016 37.56C450.163 37.3733 449.493 37.04 449.008 36.56C448.528 36.08 448.283 35.4453 448.272 34.656C448.272 33.9893 448.448 33.4027 448.8 32.896C449.157 32.3893 449.645 31.9947 450.264 31.712C450.888 31.4293 451.6 31.288 452.4 31.288C453.323 31.288 454.099 31.4453 454.728 31.76C455.357 32.0747 455.832 32.488 456.152 33C456.472 33.512 456.635 34.0587 456.64 34.64H455.112C455.064 34.1173 454.909 33.704 454.648 33.4C454.392 33.0907 454.069 32.872 453.68 32.744C453.291 32.6107 452.867 32.544 452.408 32.544C452.077 32.544 451.757 32.5867 451.448 32.672C451.144 32.752 450.869 32.8747 450.624 33.04C450.384 33.2053 450.192 33.4107 450.048 33.656C449.904 33.9013 449.832 34.1867 449.832 34.512C449.832 34.928 449.973 35.2667 450.256 35.528C450.544 35.7893 451.064 36.0133 451.816 36.2L454.016 36.728C454.592 36.8507 455.061 37.032 455.424 37.272C455.792 37.512 456.075 37.784 456.272 38.088C456.475 38.392 456.613 38.7093 456.688 39.04C456.768 39.3707 456.808 39.696 456.808 40.016C456.808 40.5973 456.635 41.128 456.288 41.608C455.941 42.0827 455.443 42.4613 454.792 42.744C454.147 43.0213 453.368 43.16 452.456 43.16ZM460.605 34.728V43H459.173V34.728H460.605ZM460.637 31.44V32.976H459.125V31.44H460.637ZM466.665 45.736C465.364 45.736 464.35 45.5467 463.625 45.168C462.905 44.7947 462.545 44.2587 462.545 43.56C462.545 43.2613 462.614 43.008 462.753 42.8C462.892 42.5867 463.057 42.4107 463.249 42.272C463.441 42.1333 463.62 42.024 463.785 41.944C463.95 41.8587 464.057 41.7973 464.105 41.76C464.014 41.7067 463.9 41.64 463.761 41.56C463.628 41.48 463.51 41.3733 463.409 41.24C463.308 41.1067 463.257 40.9333 463.257 40.72C463.257 40.4587 463.38 40.2187 463.625 40C463.87 39.7813 464.233 39.6187 464.713 39.512C464.228 39.2667 463.849 38.9413 463.577 38.536C463.305 38.1307 463.169 37.6907 463.169 37.216C463.169 36.6827 463.313 36.2187 463.601 35.824C463.894 35.4293 464.31 35.128 464.849 34.92C465.388 34.7067 466.028 34.6 466.769 34.6C467.308 34.6 467.761 34.664 468.129 34.792C468.497 34.9147 468.838 35.0907 469.153 35.32C469.238 35.2827 469.372 35.2267 469.553 35.152C469.74 35.072 469.945 34.9867 470.169 34.896C470.393 34.8053 470.601 34.72 470.793 34.64C470.99 34.5547 471.148 34.4907 471.265 34.448L471.257 35.816L469.809 36.088C469.889 36.2587 469.953 36.4453 470.001 36.648C470.054 36.8507 470.081 37.04 470.081 37.216C470.081 37.7013 469.953 38.1413 469.697 38.536C469.446 38.9307 469.065 39.2453 468.553 39.48C468.041 39.7147 467.401 39.832 466.633 39.832C466.569 39.832 466.486 39.832 466.385 39.832C466.289 39.8267 466.206 39.8213 466.137 39.816C465.572 39.832 465.182 39.896 464.969 40.008C464.756 40.1147 464.649 40.2347 464.649 40.368C464.649 40.5227 464.769 40.6293 465.009 40.688C465.249 40.7467 465.657 40.7973 466.233 40.84C466.441 40.8507 466.697 40.864 467.001 40.88C467.31 40.896 467.652 40.9173 468.025 40.944C468.894 40.9973 469.564 41.2187 470.033 41.608C470.502 41.9973 470.737 42.5227 470.737 43.184C470.737 43.936 470.401 44.5493 469.729 45.024C469.057 45.4987 468.036 45.736 466.665 45.736ZM466.929 44.784C467.692 44.784 468.276 44.6693 468.681 44.44C469.086 44.2107 469.289 43.864 469.289 43.4C469.289 43.0693 469.164 42.8 468.913 42.592C468.668 42.3787 468.292 42.256 467.785 42.224L465.465 42.072C465.257 42.0613 465.041 42.1147 464.817 42.232C464.593 42.344 464.401 42.5013 464.241 42.704C464.086 42.9067 464.009 43.136 464.009 43.392C464.009 43.8293 464.246 44.1707 464.721 44.416C465.201 44.6613 465.937 44.784 466.929 44.784ZM466.673 38.88C467.27 38.88 467.75 38.7413 468.113 38.464C468.481 38.1867 468.665 37.776 468.665 37.232C468.665 36.672 468.481 36.2453 468.113 35.952C467.75 35.6587 467.27 35.512 466.673 35.512C466.07 35.512 465.582 35.6613 465.209 35.96C464.841 36.2533 464.657 36.6773 464.657 37.232C464.657 37.7547 464.833 38.16 465.185 38.448C465.537 38.736 466.033 38.88 466.673 38.88ZM473.115 43V34.728H474.547V35.928C474.68 35.6987 474.864 35.4827 475.099 35.28C475.339 35.0773 475.627 34.9147 475.963 34.792C476.304 34.6693 476.696 34.608 477.139 34.608C477.661 34.608 478.141 34.712 478.579 34.92C479.021 35.128 479.373 35.4533 479.635 35.896C479.901 36.3333 480.035 36.8987 480.035 37.592V43H478.555V37.736C478.555 37.0907 478.384 36.6133 478.043 36.304C477.707 35.9893 477.269 35.832 476.731 35.832C476.357 35.832 476.008 35.8933 475.683 36.016C475.357 36.1333 475.093 36.3147 474.891 36.56C474.688 36.8 474.587 37.104 474.587 37.472V43H473.115ZM487.637 34.728V43H486.205V34.728H487.637ZM487.669 31.44V32.976H486.157V31.44H487.669ZM490.333 43V34.728H491.765V35.928C491.899 35.6987 492.083 35.4827 492.317 35.28C492.557 35.0773 492.845 34.9147 493.181 34.792C493.523 34.6693 493.915 34.608 494.357 34.608C494.88 34.608 495.36 34.712 495.797 34.92C496.24 35.128 496.592 35.4533 496.853 35.896C497.12 36.3333 497.253 36.8987 497.253 37.592V43H495.773V37.736C495.773 37.0907 495.603 36.6133 495.261 36.304C494.925 35.9893 494.488 35.832 493.949 35.832C493.576 35.832 493.227 35.8933 492.901 36.016C492.576 36.1333 492.312 36.3147 492.109 36.56C491.907 36.8 491.805 37.104 491.805 37.472V43H490.333Z" fill="#0071BB"/>
<rect y="73" width="530" height="134" fill="#F0F0F0"/>
</g>
<rect x="0.5" y="0.5" width="529" height="99" stroke="#ADADAD"/>
<defs>
<clipPath id="clip0_125_10090">
<rect width="530" height="100" fill="white"/>
</clipPath>
</defs>
</svg>
